<svg width="52" height="45" viewBox="0 0 52 45" fill="none" xmlns="http://www.w3.org/2000/svg">
<path d="M33.8246 29.9871C35.8685 29.9871 37.5274 31.6664 37.5274 33.7355V38.0237L37.5104 38.255C36.8545 42.8109 32.8133 45 26.032 45C19.2761 45 15.1692 42.8366 14.2826 38.3343L14.253 38.0194V33.7355C14.253 31.6664 15.9118 29.9871 17.9558 29.9871H33.8246ZM34.8699 17.1355H47.5777C49.6216 17.1355 51.2804 18.8148 51.2804 20.8839V25.1721L51.2635 25.4034C50.6076 29.9593 46.5663 32.1484 39.785 32.1484L39.4295 32.1441C39.1033 30.9702 38.4256 29.9276 37.4896 29.1599C36.5536 28.3923 35.4054 27.9375 34.2034 27.8581L33.8246 27.8452H31.8738C32.9795 26.9427 33.8712 25.8008 34.4834 24.5034C35.0956 23.206 35.4128 21.7862 35.4115 20.3484C35.4115 19.2218 35.2211 18.1422 34.8699 17.1355ZM4.20274 17.1355H16.9105C16.5593 18.1422 16.3689 19.2218 16.3689 20.3484C16.3689 23.1972 17.5918 25.7611 19.5342 27.5239L19.9066 27.8452H17.9558C15.2856 27.8452 13.0343 29.6659 12.3488 32.1505L12.2789 32.1484C5.52303 32.1484 1.41616 29.985 0.529622 25.4827L0.5 25.1678V20.8839C0.5 18.8148 2.15883 17.1355 4.20274 17.1355ZM25.8902 12.8516C27.8543 12.8516 29.7379 13.6415 31.1267 15.0474C32.5155 16.4533 33.2957 18.3602 33.2957 20.3484C33.2957 22.3367 32.5155 24.2435 31.1267 25.6495C29.7379 27.0554 27.8543 27.8452 25.8902 27.8452C23.9261 27.8452 22.0425 27.0554 20.6537 25.6495C19.2649 24.2435 18.4847 22.3367 18.4847 20.3484C18.4847 18.3602 19.2649 16.4533 20.6537 15.0474C22.0425 13.6415 23.9261 12.8516 25.8902 12.8516ZM39.6432 0C41.6073 0 43.4909 0.789838 44.8797 2.19576C46.2685 3.60168 47.0487 5.50852 47.0487 7.49679C47.0487 9.48506 46.2685 11.3919 44.8797 12.7978C43.4909 14.2037 41.6073 14.9936 39.6432 14.9936C37.6792 14.9936 35.7956 14.2037 34.4068 12.7978C33.018 11.3919 32.2377 9.48506 32.2377 7.49679C32.2377 5.50852 33.018 3.60168 34.4068 2.19576C35.7956 0.789838 37.6792 0 39.6432 0V0ZM12.1372 0C14.1012 0 15.9848 0.789838 17.3736 2.19576C18.7624 3.60168 19.5426 5.50852 19.5426 7.49679C19.5426 9.48506 18.7624 11.3919 17.3736 12.7978C15.9848 14.2037 14.1012 14.9936 12.1372 14.9936C10.1731 14.9936 8.28951 14.2037 6.90071 12.7978C5.51192 11.3919 4.7317 9.48506 4.7317 7.49679C4.7317 5.50852 5.51192 3.60168 6.90071 2.19576C8.28951 0.789838 10.1731 0 12.1372 0V0Z" fill="url(#paint0_linear)"/>
<defs>
<linearGradient id="paint0_linear" x1="3.67377" y1="-0.389431" x2="52.0153" y2="44.0004" gradientUnits="userSpaceOnUse">
<stop stop-color="white"/>
<stop offset="1" stop-color="white" stop-opacity="0.42"/>
</linearGradient>
</defs>
</svg>
