<svg width="22" height="22" viewBox="0 0 22 22" fill="none" xmlns="http://www.w3.org/2000/svg">
<path d="M11 1.83331C16.06 1.83331 20.1667 5.93998 20.1667 11C20.1667 16.06 16.06 20.1666 11 20.1666C5.93998 20.1666 1.83331 16.06 1.83331 11C1.83331 5.93998 5.93998 1.83331 11 1.83331ZM11.9166 18.2691C15.5375 17.82 18.3333 14.74 18.3333 11C18.3333 10.4316 18.26 9.89081 18.1408 9.35915L13.75 13.75V14.6666C13.75 15.675 12.925 16.5 11.9166 16.5V18.2691ZM5.59164 15.9408C5.82998 15.1983 6.50831 14.6666 7.33331 14.6666H8.24998V11.9166C8.24998 11.4125 8.66248 11 9.16665 11H14.6667V9.16665H12.8333C12.3291 9.16665 11.9166 8.75415 11.9166 8.24998V6.41665H10.0833C9.07498 6.41665 8.24998 5.59165 8.24998 4.58331V4.20748C5.56414 5.29831 3.66664 7.92915 3.66664 11C3.66664 12.9066 4.39998 14.6391 5.59164 15.9408Z" fill="url(#paint0_linear)"/>
<defs>
<linearGradient id="paint0_linear" x1="11" y1="1.83331" x2="11" y2="20.1666" gradientUnits="userSpaceOnUse">
<stop stop-color="#3438A3"/>
<stop offset="1" stop-color="#00FFFF"/>
</linearGradient>
</defs>
</svg>
