<svg width="61" height="45" viewBox="0 0 61 45" fill="none" xmlns="http://www.w3.org/2000/svg">
<path d="M10.5 5V30H23V20C23 18.6739 23.5268 17.4021 24.4645 16.4645C25.4021 15.5268 26.6739 15 28 15H40.5C41.8261 15 43.0979 15.5268 44.0355 16.4645C44.9732 17.4021 45.5 18.6739 45.5 20V30H50.5V5H10.5ZM0.5 40V35H10.5C9.17392 35 7.90215 34.4732 6.96447 33.5355C6.02678 32.5979 5.5 31.3261 5.5 30V5C5.5 3.67392 6.02678 2.40215 6.96447 1.46447C7.90215 0.526784 9.17392 0 10.5 0H50.5C51.8261 0 53.0979 0.526784 54.0355 1.46447C54.9732 2.40215 55.5 3.67392 55.5 5V30C55.5 31.3261 54.9732 32.5979 54.0355 33.5355C53.0979 34.4732 51.8261 35 50.5 35H60.5V40H45.5C45.5 41.3261 44.9732 42.5979 44.0355 43.5355C43.0979 44.4732 41.8261 45 40.5 45H28C26.6739 45 25.4021 44.4732 24.4645 43.5355C23.5268 42.5979 23 41.3261 23 40H0.5ZM29.25 40C28.9185 40 28.6005 40.1317 28.3661 40.3661C28.1317 40.6005 28 40.9185 28 41.25C28 41.5815 28.1317 41.8995 28.3661 42.1339C28.6005 42.3683 28.9185 42.5 29.25 42.5C29.5815 42.5 29.8995 42.3683 30.1339 42.1339C30.3683 41.8995 30.5 41.5815 30.5 41.25C30.5 40.9185 30.3683 40.6005 30.1339 40.3661C29.8995 40.1317 29.5815 40 29.25 40ZM39.25 40C38.9185 40 38.6005 40.1317 38.3661 40.3661C38.1317 40.6005 38 40.9185 38 41.25C38 41.5815 38.1317 41.8995 38.3661 42.1339C38.6005 42.3683 38.9185 42.5 39.25 42.5C39.5815 42.5 39.8995 42.3683 40.1339 42.1339C40.3683 41.8995 40.5 41.5815 40.5 41.25C40.5 40.9185 40.3683 40.6005 40.1339 40.3661C39.8995 40.1317 39.5815 40 39.25 40ZM33 40V42.5H35.5V40H33ZM28 20V37.5H40.5V20H28Z" fill="url(#paint0_linear)"/>
<defs>
<linearGradient id="paint0_linear" x1="20.5" y1="11.3333" x2="81.8333" y2="58" gradientUnits="userSpaceOnUse">
<stop stop-color="white"/>
<stop offset="1" stop-color="white" stop-opacity="0"/>
</linearGradient>
</defs>
</svg>
